<!-- High-res Bot Profile Picture (512x512) -->
<svg width="512" height="512" viewBox="0 0 512 512" xmlns="http://www.w3.org/2000/svg">
  <!-- Background Gradient -->
  <defs>
    <radialGradient id="bgGrad" cx="50%" cy="30%" r="70%">
      <stop offset="0%" style="stop-color:#4A90E2;stop-opacity:1" />
      <stop offset="100%" style="stop-color:#1565C0;stop-opacity:1" />
    </radialGradient>
    
    <linearGradient id="rocketGrad" x1="0%" y1="0%" x2="0%" y2="100%">
      <stop offset="0%" style="stop-color:#FFFFFF;stop-opacity:1" />
      <stop offset="100%" style="stop-color:#E8E8E8;stop-opacity:1" />
    </linearGradient>
    
    <radialGradient id="fireGrad" cx="50%" cy="0%" r="100%">
      <stop offset="0%" style="stop-color:#FF6B35;stop-opacity:1" />
      <stop offset="50%" style="stop-color:#F7931E;stop-opacity:1" />
      <stop offset="100%" style="stop-color:#FFD700;stop-opacity:1" />
    </radialGradient>
  </defs>
  
  <!-- Background Circle -->
  <circle cx="256" cy="256" r="240" fill="url(#bgGrad)" stroke="#0D47A1" stroke-width="8"/>
  
  <!-- Main Rocket -->
  <g transform="translate(140, 80)">
    <!-- Rocket Body -->
    <ellipse cx="116" cy="200" rx="50" ry="140" fill="url(#rocketGrad)" stroke="#CCCCCC" stroke-width="4"/>
    
    <!-- Rocket Tip/Nose -->
    <ellipse cx="116" cy="80" rx="25" ry="50" fill="#FFD700" stroke="#FFC107" stroke-width="3"/>
    
    <!-- Rocket Window -->
    <circle cx="116" cy="150" r="20" fill="#87CEEB" stroke="#4682B4" stroke-width="3"/>
    <circle cx="116" cy="150" r="15" fill="#B0E0E6"/>
    
    <!-- Rocket Fins -->
    <polygon points="70,320 116,360 162,320 116,340" fill="#FF5722" stroke="#D84315" stroke-width="3"/>
    
    <!-- Side Thrusters -->
    <ellipse cx="80" cy="280" rx="12" ry="25" fill="#9E9E9E" stroke="#616161" stroke-width="2"/>
    <ellipse cx="152" cy="280" rx="12" ry="25" fill="#9E9E9E" stroke="#616161" stroke-width="2"/>
    
    <!-- Main Fire/Exhaust -->
    <ellipse cx="116" cy="380" rx="30" ry="40" fill="url(#fireGrad)"/>
    <ellipse cx="116" cy="390" rx="20" ry="25" fill="#FF8F00"/>
    <ellipse cx="116" cy="395" rx="10" ry="15" fill="#FFD54F"/>
    
    <!-- Side Thruster Flames -->
    <ellipse cx="80" cy="315" rx="8" ry="15" fill="#FF9800"/>
    <ellipse cx="152" cy="315" rx="8" ry="15" fill="#FF9800"/>
  </g>
  
  <!-- Pump.fun Text -->
  <text x="256" y="420" text-anchor="middle" font-family="Arial, sans-serif" font-size="36" font-weight="bold" fill="#FFD700" stroke="#FF8F00" stroke-width="2">PUMP</text>
  
  <!-- Chart/Growth Lines -->
  <g stroke="#00E676" stroke-width="6" fill="none">
    <polyline points="60,380 120,340 180,300 240,260 300,220 360,180"/>
    <!-- Chart Points -->
    <circle cx="120" cy="340" r="8" fill="#00E676"/>
    <circle cx="180" cy="300" r="8" fill="#00E676"/>
    <circle cx="240" cy="260" r="8" fill="#00E676"/>
    <circle cx="300" cy="220" r="8" fill="#00E676"/>
    <circle cx="360" cy="180" r="8" fill="#00E676"/>
  </g>
  
  <!-- Telegram Bot Badge -->
  <circle cx="400" cy="112" r="40" fill="#0088CC"/>
  <text x="400" y="122" text-anchor="middle" font-family="Arial, sans-serif" font-size="28" font-weight="bold" fill="white">🤖</text>
  
  <!-- Decorative Stars -->
  <g fill="#FFD700">
    <polygon points="100,100 105,115 120,115 108,125 113,140 100,130 87,140 92,125 80,115 95,115" opacity="0.8"/>
    <polygon points="380,350 383,358 391,358 385,363 388,371 380,367 372,371 375,363 369,358 377,358" opacity="0.8"/>
    <polygon points="450,300 453,308 461,308 455,313 458,321 450,317 442,321 445,313 439,308 447,308" opacity="0.8"/>
  </g>
</svg>